<svg width="488" height="76" xmlns="http://www.w3.org/2000/svg"><g fill-rule="nonzero" fill="none"><g fill="#000"><path d="M174.8 42.3V1.8h7.5v39.7c0 10.2 5.8 14.5 15.6 14.5 9.4 0 15.1-4.3 15.1-14.5V1.8h7.5v40.5c0 14.5-10.1 20.2-22.9 20.2-12.9 0-22.8-5.7-22.8-20.2zM231.8 18.4h6.8v6.1h.2c3.3-4.4 7.6-7.1 13.9-7.1 11 0 18.6 8.4 18.6 22.7 0 13.9-7.1 22.7-18.8 22.7-5.9 0-10-1.8-13.6-6.4h-.2v19h-6.8v-57h-.1zm32.4 21.8c0-9.7-4.1-17.1-12.3-17.1-9.4 0-13.8 7.7-13.8 17.1 0 9.4 3.8 17 13.7 17 8.3 0 12.4-7.2 12.4-17zM278.4 31.7c0-17.6 10.5-31.2 28.3-31.2 14 0 22.4 8 24 19.1h-7.4c-1.4-7.4-7.4-12.5-16.8-12.5-13.1 0-20.5 10.6-20.5 24.7 0 14.6 8.1 24.5 20.6 24.5 11.3 0 16.6-7.7 17.4-16.5h7.4c-.1 5.9-2.9 12.6-7.2 16.8-4.2 4.1-10.3 6.3-17.9 6.3-16.9-.1-27.9-13.1-27.9-31.2zM340.5 1.8h6.8v59.8h-6.8zM355.4 40c0-12.5 8-22.7 20.9-22.7 13 0 20.8 10.2 20.8 22.7s-7.9 22.7-20.8 22.7c-12.9.1-20.9-10.1-20.9-22.7zm34.8 0c0-9.5-4.7-17.1-13.9-17.1s-14 7.6-14 17.1c0 9.5 4.8 17.1 14 17.1s13.9-7.5 13.9-17.1zM432.7 61.6v-5.9h-.2c-3.1 4.2-6.8 6.9-13 6.9-8.9 0-14.5-5.4-14.5-14.3V18.4h6.8v29.8c0 5.6 3.6 8.9 9.7 8.9 6.9 0 11.3-5.2 11.3-12V18.5h6.8v43.2h-6.9v-.1zM447.7 40.1c0-14.4 8.3-22.7 19-22.7 6.1 0 10.8 3 13.5 7.1h.2V1.8h6.8v59.8h-6.8v-5.3h-.2c-3.3 4.2-7.3 6.5-13.4 6.5-11.7.1-19.1-8.8-19.1-22.7zm33.1.1c0-10-4.8-17.1-13.8-17.1-8.2 0-12.4 7.4-12.4 17.1 0 9.8 4.2 17 12.5 17 9.6 0 13.7-7.2 13.7-17z"/></g><g fill="#7B00FF"><path d="M139.4 38.1c6.5 0 11.8 5.3 11.8 11.8 0 6.5-5.3 11.8-11.8 11.8H55.1V31h5.5v25.2h78.7c3.5 0 6.3-2.8 6.3-6.3s-2.8-6.3-6.3-6.3H66.1v-5.5h73.3z"/><path d="M85.1 1.9H55.2v12.6h5.5V7.4h24.4c3.5 0 6.3 2.8 6.3 6.3S88.6 20 85.1 20H12.7C6.2 20 .9 25.3.9 31.8c0 6.5 5.3 11.8 11.8 11.8h37v-5.5h-37c-3.5 0-6.3-2.8-6.3-6.3s2.8-6.3 6.3-6.3h72.4c6.5 0 11.8-5.3 11.8-11.8 0-6.5-5.3-11.8-11.8-11.8z"/></g></g></svg>